Coordinates
version=1
nRows=17
nColumns=24
inDegrees=yes

Units are S.I. units (second, meters, Newtons, ...)
Angles are in degrees.

endheader
time	pelvis_tilt	pelvis_list	pelvis_rotation	pelvis_tx	pelvis_ty	pelvis_tz	hip_flexion_r	hip_adduction_r	hip_rotation_r	knee_angle_r	ankle_angle_r	subtalar_angle_r	mtp_angle_r	hip_flexion_l	hip_adduction_l	hip_rotation_l	knee_angle_l	ankle_angle_l	subtalar_angle_l	mtp_angle_l	lumbar_extension	lumbar_bending	lumbar_rotation
      1.42116667	      2.19443561	      2.46115873	     -0.99301895	      0.21873620	      1.03291236	      0.31941586	     15.43759582	     -6.07659545	     -8.45990022	    -69.01940876	     -9.86222871	    -12.12936071	      3.23429612	      5.27826104	      8.49878094	      5.24123768	    -10.82184695	      4.94683404	    -11.97198779	      2.84597156	     -4.84212342	     -5.42278500	      2.67270872
      1.42533333	      2.24994065	      2.29921755	     -1.02540415	      0.22346547	      1.03369760	      0.31927469	     15.94526635	     -5.81214076	     -8.22574088	    -68.77160139	     -9.39569036	    -12.12997777	      3.22650755	      4.80770558	      8.33095101	      5.32175235	    -10.59990768	      5.03885830	    -12.02536284	      2.83815824	     -4.97856509	     -5.20150246	      2.61259782
      1.42950000	      2.28632528	      2.15833001	     -1.06390847	      0.22819520	      1.03440610	      0.31914861	     16.46780526	     -5.56624487	     -7.98029669	    -68.48912120	     -8.93684629	    -12.09348887	      3.21865853	      4.36077710	      8.18219683	      5.36134009	    -10.37775104	      5.12805196	    -12.03474880	      2.82725091	     -5.07717785	     -5.02306789	      2.56939645
      1.43366667	      2.33597927	      2.00359119	     -1.08060630	      0.23292281	      1.03512769	      0.31900204	     16.95081345	     -5.30723011	     -7.76353370	    -68.14467967	     -8.48592394	    -12.01864948	      3.20987850	      3.90052428	      8.01892896	      5.41101104	    -10.15989645	      5.22890157	    -12.02122946	      2.81324838	     -5.19230078	     -4.82716003	      2.52767727
      1.43783333	      2.37279273	      1.86786887	     -1.08867233	      0.23763259	      1.03577613	      0.31883973	     17.43819760	     -5.07219640	     -7.55492091	    -67.76467070	     -8.02549474	    -11.92051179	      3.20246885	      3.46018970	      7.87701055	      5.46019562	     -9.95067547	      5.33150423	    -12.00203067	      2.79674241	     -5.29487392	     -4.65393263	      2.47736582
      1.44200000	      2.42813364	      1.74193048	     -1.07785575	      0.24234551	      1.03642594	      0.31864533	     17.88549039	     -4.85798535	     -7.37082885	    -67.33677580	     -7.54527164	    -11.74469408	      3.18658278	      2.99176001	      7.74773128	      5.53741102	     -9.72388259	      5.43885783	    -11.96994429	      2.76628615	     -5.40983166	     -4.48769920	      2.39962468
      1.44616667	      2.45862113	      1.59223187	     -1.04797511	      0.24703178	      1.03702956	      0.31844265	     18.33622630	     -4.60883581	     -7.19955691	    -66.84310708	     -7.08124196	    -11.62507045	      3.17932521	      2.56937870	      7.59198045	      5.60755526	     -9.53621228	      5.53947712	    -11.95535377	      2.74070115	     -5.51063993	     -4.29925348	      2.33199148
      1.45033333	      2.50053624	      1.45905466	     -1.00765688	      0.25170969	      1.03760168	      0.31821914	     18.76044196	     -4.38807171	     -7.04805427	    -66.30958964	     -6.59352557	    -11.46386739	      3.17645089	      2.13261507	      7.45518040	      5.69374301	     -9.34127490	      5.64325681	    -11.93515221	      2.71390796	     -5.61756071	     -4.12674057	      2.24871417
      1.45450000	      2.55464710	      1.33668799	     -0.94696318	      0.25639897	      1.03815404	      0.31795719	     19.15172466	     -4.18743083	     -6.91281999	    -65.73383028	     -6.07653818	    -11.23719361	      3.17011514	      1.67207268	      7.33193737	      5.81441197	     -9.12375730	      5.74623218	    -11.91835662	      2.66831040	     -5.74025517	     -3.96848899	      2.11507219
      1.45866667	      2.57853574	      1.19945078	     -0.86288917	      0.26104369	      1.03863662	      0.31767297	     19.55453176	     -3.96859781	     -6.79598613	    -65.09666218	     -5.57210097	    -11.06599025	      3.17228123	      1.26934396	      7.19133130	      5.92856873	     -8.95325545	      5.84649913	    -11.91009044	      2.63205449	     -5.83313978	     -3.79038943	      2.01131196
      1.46283333	      2.61005769	      1.07824848	     -0.77268405	      0.26571717	      1.03909111	      0.31736693	     19.93215151	     -3.77891556	     -6.69490200	    -64.42081918	     -5.03148144	    -10.83485612	      3.17643274	      0.84371446	      7.06912725	      6.07270527	     -8.75376908	      5.94750626	    -11.90865670	      2.57746781	     -5.92527493	     -3.63089070	      1.84897238
      1.46700000	      2.61876554	      0.94360728	     -0.65818193	      0.27034898	      1.03947988	      0.31703995	     20.31265057	     -3.57277067	     -6.61068510	    -63.68419881	     -4.51689596	    -10.67624830	      3.18709427	      0.46852969	      6.92994952	      6.20091733	     -8.60176490	      6.05267312	    -11.90261754	      2.54444856	     -5.99856834	     -3.44885119	      1.74206408
      1.47116667	      2.67070616	      0.83751687	     -0.53866200	      0.27499785	      1.03989279	      0.31669321	     20.63014465	     -3.40941025	     -6.53295973	    -62.91179143	     -3.95373760	    -10.41495050	      3.20294815	      0.02363121	      6.82294276	      6.37565155	     -8.40113470	      6.14908017	    -11.90772595	      2.48472730	     -6.11899446	     -3.30839983	      1.53926484
      1.47533333	      2.67719495	      0.72476259	     -0.39842523	      0.27962910	      1.04020185	      0.31631756	     20.97738946	     -3.24201071	     -6.47403571	    -62.08654667	     -3.41789333	    -10.21496458	      3.22197497	     -0.35303037	      6.70720731	      6.54941738	     -8.23654250	      6.24973785	    -11.91866259	      2.42667125	     -6.18703355	     -3.15525907	      1.36133506
      1.47950000	      2.69423981	      0.61085296	     -0.24536619	      0.28425893	      1.04050320	      0.31592604	     21.28941069	     -3.07835878	     -6.42958019	    -61.20417956	     -2.88936072	    -10.02363402	      3.24423419	     -0.73894188	      6.58836189	      6.73278924	     -8.07549050	      6.35214548	    -11.92703443	      2.36939645	     -6.26656037	     -2.99791397	      1.18069031
      1.48366667	      2.67790352	      0.49678592	     -0.07586596	      0.28887107	      1.04070826	      0.31551296	     21.61937207	     -2.91848206	     -6.39951626	    -60.27277830	     -2.38004499	     -9.89078376	      3.26432995	     -1.06852801	      6.46755041	      6.90061098	     -7.95343652	      6.46353637	    -11.92557970	      2.33398167	     -6.31057785	     -2.83559585	      1.04410936
      1.48783333	      2.69056861	      0.40837079	      0.09648265	      0.29350676	      1.04092900	      0.31509261	     21.89939477	     -2.79493035	     -6.37262256	    -59.30166159	     -1.85865560	     -9.67768748	      3.29333699	     -1.45412370	      6.37361960	      7.12275604	     -7.77881637	      6.56013517	    -11.94653973	      2.26503530	     -6.38283019	     -2.71649612	      0.76865903
